# xmcd
#
# Track frame offsets:
#        150
#        20915
#        36845
#
# Disc length: 679 seconds
#
# Revision: 0
# Processed by: cddbd v1.5.1PL2 Copyright (c) Steve Scherf et al.
# Submitted via: ExactAudioCopy v0.95b2
#
DISCID=2102a503
DTITLE=The Carpenters - The Rainbow Connection
DYEAR=2001
DGENRE=Acoustic
TTITLE0=The Rainbow Connection
TTITLE1=Leave Yesterday Behind
TTITLE2=Medley - Superstar - Rainy Days And Mondays
EXTD=
EXTT0=
EXTT1=
EXTT2=
PLAYORDER=
